<?xml version="1.0" encoding="UTF-8"?>
<svg width="1024px" height="1024px" viewBox="0 0 1024 1024" version="1.1" xmlns="http://www.w3.org/2000/svg" xmlns:xlink="http://www.w3.org/1999/xlink">
    <!-- Generator: Sketch 48.2 (47327) - http://www.bohemiancoding.com/sketch -->
    <title>Artboard 1</title>
    <desc>Created with Sketch.</desc>
    <defs></defs>
    <g id="Page-1" stroke="none" stroke-width="1" fill="none" fill-rule="evenodd">
        <g id="Artboard-1"></g>
        <g id="colors" transform="translate(43.000000, 10.000000)" fill="#FFFFFF">
            <path d="M668.446318,1003.90048 L430.967721,1002.81199 L442.951193,943.987142 L476.720601,874.268324 L374.322319,872.089328 L319.854349,865.553346 L246.867931,814.353982 L214.187685,783.852062 L172.79235,778.405578 L86.734012,787.120556 L101.985151,756.618636 L166.256479,703.240276 L98.7167687,709.777264 L1.76481016,727.206214 L20.2837322,699.972788 L71.4831413,662.934886 L168.434805,632.432966 L103.074314,605.19954 L140.112104,591.038078 L220.723555,583.412598 L221.813612,515.872776 L243.600443,375.346648 L140.112104,461.404918 L149.916357,427.63551 L214.187685,316.521804 L121.592762,356.8282 L76.9298489,378.615142 L115.056892,331.772764 L181.50744,287.109382 L192.400855,277.305912 L171.703187,258.786458 L154.273902,213.033578 L212.00936,206.497596 L323.122731,235.910018 L329.658602,234.82052 L305.693446,173.817686 L302.425064,113.903344 L350.356269,2.78975872 L350.356269,98.652384 L368.875612,165.102708 C368.875612,165.102708 372.993505,184.446076 381.947352,198.872116 C392.601116,216.037494 408.091728,228.284538 408.091728,228.284538 L434.236103,246.803992 L570.404687,280.5734 L651.016138,257.69696 L751.236095,244.624996 L818.775805,243.535498 L814.41826,274.037418 L802.435683,320.879796 L775.202145,363.364182 L718.555849,421.099528 L672.802969,449.422452 L651.016138,599.753056 L756.682802,588.859082 L705.484108,644.416438 L811.150772,658.5779 L865.617848,674.917352 L892.851386,692.347308 L801.34652,693.436806 L763.219567,702.151784 L789.363942,717.402744 L818.775805,759.88713 L697.858181,756.618636 L657.552903,775.13809 L629.229308,798.01453 L643.391105,845.9454 L657.552903,911.306226 L668.446318,1003.90048 Z" id="skin-color"></path>
            <polygon id="big-eye-color" points="400.466317 591.037846 395.019564 545.285305 396.10892 478.834898 410.270442 433.082356 446.218925 400.401908 493.060864 387.329724 532.277461 386.240373 578.029997 400.401908 607.442445 417.831585 623.782774 442.886489 629.22955 488.63903 628.140147 521.319547 610.710655 584.501834 601.995668 608.467364 568.225848 607.377991 493.060864 599.752605"></polygon>
            <polygon id="big-iris-color" points="579.119381 455.958652 625.961382 449.422545 619.425349 427.63562 578.03009 398.223175 533.366784 388.419066 544.260251 440.70776"></polygon>
            <polygon id="small-eye-color" points="240.332096 582.323142 242.510793 507.158097 262.119091 431.993053 296.978211 394.955183 334.01607 392.776477 355.803037 402.580618 366.696452 420.010097 372.143228 454.869257 367.78589 513.694127 357.981775 579.055026 355.803037 589.948476"></polygon>
            <polygon id="small-iris-color" points="317.675843 391.687129 323.122583 434.171711 348.177598 460.316065 372.143269 455.958709 372.143269 425.456926 356.892404 401.491249"></polygon>
            <polygon id="torso-color" points="430.968052 1002.81147 578.030057 1001.72221 578.030057 967.952397 563.868564 928.73586 522.473339 909.127562 494.150203 908.038213 463.648561 918.931677 447.308261 937.45058 435.32544 978.845846"></polygon>
        </g>
        <g id="shadows" transform="translate(478.000000, 251.000000)" fill="#9899A9" stroke="#9899A9">
            <path d="M245.537439,521.882131 C228.340037,529.215012 215.01845,537.959089 215.01845,537.959089 C215.01845,537.959089 216.735042,520.901145 221.830874,510.709911 C225.999887,502.371628 233.547882,500.900244 233.547882,500.900244 C233.547882,500.900244 246.820172,497.870602 257.527254,496.267865 C269.573075,494.464502 280.232409,487.8058 279.599043,484.00564 C279.006198,480.448503 262.432096,470.926148 262.432096,470.926148 C262.432096,470.926148 268.970681,465.327736 277.41917,461.933938 C285.976318,458.496041 307.120771,449.944262 307.120771,449.944262 C307.120771,449.944262 305.945405,447.220858 301.398283,444.766785 C297.361932,442.588479 281.930933,442.324826 268.699422,440.679503 C263.902722,440.082925 253.826684,437.650618 249.624893,436.592032 C242.383257,434.767849 232.577444,433.79557 233.547882,430.052381 C234.875524,424.931496 243.085018,412.067771 243.085018,412.067771 C243.085018,412.067771 250.141342,404.549974 253.439799,397.353367 C257.634879,388.200467 262.432096,381.00386 262.432096,381.00386 C262.432096,381.00386 253.582784,377.669493 243.766389,376.64384 C240.877013,376.342143 223.430033,376.724469 215.01845,375.554024 C198.856681,373.304741 191.856648,368.469162 191.856648,368.469162 L275.511588,355.662048 L310.935677,353.209628 L309.845483,360.294408 L268.426874,406.890484 C268.426874,406.890484 348.284898,410.077978 399.222834,422.695083 C436.844603,432.013595 445.546543,450.761718 445.546543,450.761718 C445.546543,450.761718 411.798267,448.129164 379.330917,450.761718 C346.264012,453.442726 323.470073,461.933938 323.470073,461.933938 C323.470073,461.933938 346.182712,471.648023 362.981616,488.365471 C374.385554,499.714658 379.876014,518.067208 379.876014,518.067208 L268.699422,515.069741 C268.699422,515.069741 255.180652,517.770243 245.537439,521.882131 Z" id="cheek-shadow" stroke-width="4.3"></path>
            <path d="M-5.15490052,4.42014919 C-5.15490052,4.42014919 23.7968305,38.4822737 49.4682029,53.7698993 C71.6521425,66.9803315 98.9368527,73.1268263 98.9368527,73.1268263 C98.9368527,73.1268263 134.265497,95.8575741 157.00823,120.444293 C174.054594,138.87342 178.515839,159.158887 178.515839,159.158887 C178.515839,159.158887 192.850157,184.676367 197.872965,200.023922 C202.528917,214.24983 197.872965,218.305443 197.872965,218.305443 L196.216372,264.377334 C196.216372,264.377334 193.084438,286.897588 186.951958,308.248473 C178.369809,338.126024 166.78751,366.834205 166.78751,366.834205 L220.195812,357.0246 L225.64563,303.616128 L235.455383,210.423946 L289.408627,174.455021 L342.272382,119.411801 L370.610964,75.8129352 L385.870535,21.3146309 L383.690766,0.605256795 L328.102299,0.605256795 L260.524707,7.14506441 L210.386059,20.22465 L154.797988,36.5741783 L136.268367,39.84401 L63.2405606,19.1347061 L13.1020314,8.23500829 C13.1020314,8.23500829 5.53916644,17.2854306 3.22618918,19.1347061" id="face-shadow" stroke-width="8.6"></path>
        </g>
        <path d="M861.401259,702.989195 C890.994855,700.872476 938.775615,702.989195 938.775615,702.989195 C938.775615,702.989195 901.3664,678.468281 864.625644,669.630452 C805.186306,655.332575 746.41452,656.717486 746.41452,656.717486 C746.41452,656.717486 768.185241,631.662863 777.042096,622.282712 C796.126283,602.070526 799.091266,598.757491 799.091266,598.757491 C799.091266,598.757491 740.002937,603.672603 691.608138,611.521749 C663.702469,616.047613 653.994848,616.902171 653.994848,616.902171 L625.516862,619.054352 L592.202752,616.902171 C592.202752,616.902171 555.311434,609.035621 525.037588,606.141297 C470.217601,600.900197 435.842301,601.836965 435.842301,601.836965 C435.842301,601.836965 398.095682,600.49601 344.497424,597.532603 C310.513041,595.653603 260.675205,592.152175 260.675205,592.152175 C260.675205,592.152175 215.724285,595.723428 186.525234,601.836965 C156.618723,608.098438 142.464081,616.902171 142.464081,616.902171 C142.464081,616.902171 167.764846,623.775434 186.525234,630.891257 C203.227639,637.226564 213.390574,643.804223 213.390574,643.804223 C213.390574,643.804223 159.949227,649.813424 112.374447,676.086935 C71.2914282,698.775359 36.0746408,741.72839 36.0746408,741.72839 C36.0746408,741.72839 84.2416649,728.663954 138.165808,720.206582 C173.437224,714.67466 214.465369,713.750099 214.465369,713.750099 C214.465369,713.750099 179.640197,736.963322 154.285919,761.097839 C136.116895,778.392743 127.419672,796.608644 127.419672,796.608644 C127.419672,796.608644 177.393558,788.73755 223.062822,788.000099 C244.021778,787.661519 260.675205,794.456582 260.675205,794.456582 C260.675205,794.456582 299.015909,837.318137 344.497424,865.478192 C369.404551,880.89962 401.453396,881.619548 401.453396,881.619548 C401.453396,881.619548 450.317114,883.050791 492.798273,883.77161 C513.720949,884.126822 528.261973,883.77161 528.261973,883.77161 C528.261973,883.77161 580.782715,877.125047 620.681645,859.021709 C649.560525,845.918366 665.816686,821.358842 665.816686,821.358842 C665.816686,821.358842 678.132839,795.977519 708.802137,780.467288 C716.92795,776.357996 726.621059,769.486901 736.743179,767.554322 C754.680011,764.129615 843.132465,769.706384 843.132465,769.706384 L861.401259,769.706384 C861.401259,769.706384 847.868819,742.895897 829.161944,724.511003 C818.853889,714.379442 803.370492,712.673771 803.370492,712.673771 C803.370492,712.673771 823.292747,705.714764 861.401259,702.989195 Z" id="face-bottom" stroke="#000000" stroke-width="12.9"></path>
        <g id="body" transform="translate(473.000000, 814.000000)" stroke="#000000">
            <path d="M48.35113,71.9893584 C48.35113,71.9893584 28.7512842,103.79732 16.1170433,135.38298 C2.96404495,168.265408 1.61170433,200.925467 1.61170433,200.925467 C1.61170433,200.925467 -0.460055446,153.711854 21.489341,126.787253 C39.8325318,104.286289 77.3617478,102.074471 77.3617478,102.074471 C77.3617478,102.074471 117.018432,106.230706 134.308494,131.085117 C151.401799,155.656271 147.739388,195.553205 147.739388,200.925467" id="torso" stroke-width="12.9"></path>
            <path d="M201.999995,200.925532 C201.999995,183.734043 205.098267,177.269935 204.148932,154.723405 C202.949331,126.232702 196.627655,97.7765964 196.627655,97.7765964 C196.627655,97.7765964 211.670208,174.601064 211.670208,182.659575 L211.670208,200.925532" id="arm-joint" stroke-width="8.6" fill="#000000"></path>
            <path d="M238.531919,200.925562 C238.531919,200.925562 235.945889,145.7834 224.563834,89.180778 C216.06823,46.932276 198.776601,3.2233948 198.776601,3.2233948" id="arm" stroke-width="12.9"></path>
        </g>
        <path d="M384.71432,646.166641 C399.82736,638.364 399.71432,624.777812 399.71432,624.777812 C399.71432,624.777812 405.6656,607.778907 384.71432,594.833359 C371.91512,586.924704 332.21432,583.069445 332.21432,583.069445 C332.21432,583.069445 306.03044,578.895468 289.357148,589.486109 C282.459032,593.867702 285.071428,613.013906 285.071428,613.013906 C285.071428,613.013906 285.149778,632.809451 301.14284,646.166641 C311.39972,654.733122 337.57148,656.861094 337.57148,656.861094 C337.57148,656.861094 368.75588,654.405718 384.71432,646.166641 Z" id="nose" stroke="#000000" stroke-width="12.9" fill="#000000"></path>
        <g id="mouth" transform="translate(284.000000, 633.000000)">
            <polygon id="inner-mouth" stroke="#9E9E9E" stroke-width="4.3" fill="#9899A9" points="59.2307693 21.5384618 75.3846155 117.384615 119.538462 217.53846 198.153847 220.769229 304.769232 192.769229 368.307694 143.230768 400.615387 79.6923074 396.307695 26.9230772 348.923079 18.3076926 215.384616 9.69230812"></polygon>
            <polygon id="tongue-color" fill="#9899A9" points="173.129863 216.462712 181.861965 183.71729 200.417677 148.788813 239.712205 121.500962 284.464269 106.219851 324.850349 93.1216252 394.707213 82.2064877 385.975021 113.860335 367.419309 147.697356 322.667245 181.534234 251.718829 208.822085 193.868634 220.828825"></polygon>
            <path d="M3.23077056,26.923008 C3.23077056,26.923008 52.1724221,7.3122112 180.922971,3.2307744 C239.0186,1.38912704 376.923232,15.0769248 376.923232,15.0769248 C376.923232,15.0769248 397.658137,16.07928 403.846115,38.769248 C408.965592,57.540896 399.538552,98 399.538552,98 C399.538552,98 394.107651,130.81936 353.230816,170.15376 C337.031007,185.742368 285.384446,207.84624 285.384446,207.84624 C285.384446,207.84624 249.379504,220.84608 200.307824,222.923008 C147.609949,225.1536 81.8461548,216.461504 81.8461548,216.461504 L79.6923732,204.615488 C79.6923732,204.615488 126.000109,216.461504 185.230944,216.461504 C213.769061,216.461504 280.000197,197.076992 280.000197,197.076992 C280.000197,197.076992 331.917259,175.78624 365.07682,140 C386.301574,117.093984 388.769235,79.692256 388.769235,79.692256 C388.769235,79.692256 394.619598,53.54944 388.769235,38.769248 C384.388829,27.703424 376.923232,26.923008 376.923232,26.923008 C376.923232,26.923008 278.911234,19.1397472 190.615193,20.4615488 C99.0653581,21.832048 8.61537179,33.384512 8.61537179,33.384512 L3.23077056,26.923008 Z" stroke="#000000" stroke-width="4.3" fill="#000000"></path>
            <path d="M165.846152,216.461504 C165.846152,216.461504 164.921721,160.704184 221.846157,124.923046 C277.998663,89.6272813 392,74.3076892 392,74.3076892 L387.69229,91.5384579 C387.69229,91.5384579 294.468095,98.5883837 233.692359,134.615431 C190.006595,160.511587 178.769221,215.384572 178.769221,215.384572 L165.846152,216.461504 Z" id="tongue" fill="#000000"></path>
            <path d="M51.6923065,29.0769291 C51.6923065,29.0769291 57.0448812,84.9261985 72.1538448,135.692376 C83.9679278,175.387805 105.538482,210.000006 105.538482,210.000006 L131.923062,215.923169 C131.923062,215.923169 104.672877,183.353719 86.1538749,130.307717 C72.9036374,92.353608 65.6923366,27.9999973 65.6923366,27.9999973 L51.6923065,29.0769291 Z" id="lips" fill="#000000"></path>
        </g>
        <g id="right-eye" transform="translate(435.000000, 393.000000)" stroke="#000000">
            <path d="M212.405552,225.311424 C212.405552,225.311424 253.076209,127.569648 234.452756,63.452856 C220.275217,14.6450556 141.96233,4.3018812 141.96233,4.3018812 C141.96233,4.3018812 58.9086598,-10.020486 17.2075537,52.698096 C-8.30823377,91.073916 7.52830172,206.49048 7.52830172,206.49048" id="big-eye" stroke-width="12.9"></path>
            <path d="M119.377355,2.15094118 C119.377355,2.15094118 112.579789,48.7674821 152.716936,86.0377634 C172.806146,104.691953 239.830148,113.999941 239.830148,113.999941 C239.830148,113.999941 243.695523,95.2738538 239.830148,77.4339987 C236.704913,63.0096781 227.803621,55.3957516 227.803621,55.3957516 C227.803621,55.3957516 222.571279,62.6561146 208.182886,64.1161319 C199.059229,65.041971 181.69634,62.3764231 174.226414,58.07547 C165.250011,52.9072177 161.114779,50.8659811 156.950768,39.590164 C153.581358,30.4658108 152.716936,7.43390407 152.716936,7.43390407 L119.377355,2.15094118 Z" id="iris" stroke-width="8.6" fill="#000000"></path>
        </g>
        <g id="left-eye" transform="translate(280.000000, 397.000000)" stroke="#000000">
            <path d="M118.59375,203.765625 C118.59375,203.765625 142.36908,117.392184 134.765556,47.437569 C133.203258,33.063075 127.4913,22.569417 118.59375,15.7061664 C109.396602,8.6118417 97.03125,5.3906319 97.03125,5.3906319 C97.03125,5.3906319 84.261006,2.9156571 72.733314,5.3906319 C56.739252,8.8244928 39.457374,19.6711686 29.109444,40.968819 C0.55630974,99.734877 4.3125,196.218819 4.3125,196.218819" id="small-eye" stroke-width="12.9"></path>
            <path d="M74.390625,8.625 C74.390625,8.625 68.2254957,42.48192 85.171875,64.6875 C99.4911,83.45067 136.921875,90.5625 136.921875,90.5625 L136.921875,51.2199938 C136.921875,51.2199938 131.871972,56.2864913 122.998986,56.6835862 C115.519248,57.0184088 104.572191,53.3475225 99.1875,47.4375 C88.858338,36.1006275 90.5625,7.546875 90.5625,7.546875 L74.390625,8.625 Z" id="small-iris" stroke-width="8.6" fill="#000000"></path>
        </g>
        <path d="M288.8125,383.229587 C288.8125,383.229587 274.993778,436.587457 267.5625,494.112176 C261.712528,539.396152 262.25,588.846956 262.25,588.846956" id="temp" stroke="#000000" stroke-width="12.9"></path>
        <path d="M695.815408,608 C695.815408,608 702.27732,568.784317 707.742212,523.132212 C710.957124,496.270498 712.097012,465.121394 712.097012,465.121394 C712.097012,465.121394 785.944488,419.940724 838.221952,345.876803 C861.381084,313.050102 863,251.340743 863,251.340743 C863,251.340743 804.051288,248.75467 733.78086,259.934499 C679.12812,268.629065 613.139148,291.08894 613.139148,291.08894 C613.139148,291.08894 572.365232,278.752168 541.0122,270.677287 C505.625248,261.56347 479.65536,256.712137 479.65536,256.712137 C479.65536,256.712137 433.867312,242.42143 406.626128,166.472955 C390.528648,121.565658 392.970392,15 392.970392,15 C392.970392,15 350.904552,81.568401 346.416052,139.615985 C342.014648,196.515521 375.23184,244.894833 375.23184,244.894833 C375.23184,244.894833 292.010848,255.908622 239.437716,286.791469 C153.908451,337.016197 99,407.110576 99,407.110576 C99,407.110576 152.674514,374.283282 190.76022,354.471152 C236.30226,330.775465 266.268632,320.094349 266.268632,320.094349 C266.268632,320.094349 238.007508,354.623553 217.581968,390.996394 C190.337728,439.491341 170.92785,489.829925 170.92785,489.829925 C170.92785,489.829925 223.382256,430.853703 291.63496,380.187783 C295.998928,376.947038 300.4286,373.740094 304.912516,370.585334 C346.351876,341.423373 403.049844,326.539666 403.049844,326.539666" id="face-upper" stroke="#000000" stroke-width="12.9"></path>
        <path d="M713.087898,438.190738 C710.603205,451.300013 712.013535,463.927623 712.013535,463.927623 L713.087898,425.322377 C713.087898,425.322377 703.370454,404.09016 688.378344,381.355246 C675.43797,361.731513 657.222978,340.605246 657.222978,340.605246 C657.222978,340.605246 694.97907,322.84281 744.243312,311.651312 C772.867605,305.148655 813,305.217098 813,305.217098 C813,305.217098 795.134601,340.800846 770.02707,372.776393 C748.40148,400.317199 719.533758,424.25 719.533758,424.25 C719.533758,424.25 714.363237,431.461283 713.087898,438.190738 Z" id="inner-ear" stroke="#000000" stroke-width="12.9" fill="#9899A9"></path>
        <path d="M300.223416,261.941276 C335.395696,251.398282 363.962832,246.766193 363.962832,246.766193 C363.962832,246.766193 313.10656,224.447435 256.35,217.347219 C223.34406,213.218232 196.15,221.625 196.15,221.625 C196.15,221.625 203.099832,249.316125 218.725,274.027812 C224.062332,282.468937 238.075,287.930547 238.075,287.930547 C238.075,287.930547 266.731576,271.980459 300.223416,261.941276 Z" id="small-ear" stroke="#000000" stroke-width="12.9"></path>
    </g>
</svg>