<svg height="700pt" preserveAspectRatio="xMidYMid meet" viewBox="0 0 700 700" width="700pt" xmlns="http://www.w3.org/2000/svg"><path d="m1617 6343c-2-1-23-5-48-8-24-3-66-10-94-15-27-5-61-11-75-14-56-9-251-70-345-107-120-48-263-123-362-190-275-184-408-431-318-586 26-43 96-103 121-103 6 0 17-14 23-32 6-17 22-46 36-63 25-34 109-80 129-72 8 3 12 28 11 71-1 37 3 70 9 75s27 8 46 8c30-1 37-7 51-38 21-45 53-76 104-100 64-30 65-28 65 61v80h88c90 0 113-8 126-43 6-20-20-51-115-130-35-29-62-45-72-41-31 12-124 11-178-2-133-31-301-135-398-247-9-10-29-25-44-33-25-13-31-13-55 2-15 9-45 38-67 65s-48 52-58 55c-25 8-67-22-67-48 0-23 36-75 87-126 18-18 33-35 33-37 0-4-38-15-101-29-19-4-29-15-37-44-20-65-19-65 51-60 109 9 223 74 360 204 121 116 228 176 354 198 25 4 31 2 26-9-3-8-9-15-14-15-16 0-45-70-32-78 15-9 1017-7 1103 2 62 7 80 9 153 21 56 10 147 35 200 56 37 15 52 17 57 8 11-17 38-164 46-245 12-135 6-427-11-526-2-13-9-61-15-108s-17-119-25-160-17-87-19-103c-3-15-7-35-10-45-3-9-7-28-10-42-40-217-168-621-301-951-87-217-130-343-165-494-34-144-33-138-50-280-11-92-5-352 9-440 71-419 303-747 650-916 76-36 179-73 236-84 151-29 268-36 364-24 31 4 78 10 105 14 27 3 52 8 56 10s18 6 33 9c50 9 202 68 277 108 320 171 577 489 704 870 83 248 107 431 111 853 1 182 6 364 9 405 8 92 36 312 41 319 1 3 6 28 9 55 4 27 9 52 11 56s6 17 8 31c18 96 97 295 152 384 110 176 221 228 333 156 173-110 255-407 197-703-36-186-103-350-236-585-183-324-267-602-273-903-2-122 12-279 30-342 3-9 7-27 9-39 22-111 125-339 197-434 132-174 263-281 438-356 254-109 520-98 780 33 358 180 610 564 675 1028 11 78 14 362 4 430-22 158-26 180-54 290-41 165-107 346-176 482-25 49-38 63-73 78-35 16-49 18-82 9-38-10-93-60-95-86-1-7-2-19-3-25-1-7 8-60 20-118s25-125 29-150c4-24 8-47 10-50 10-16 20-185 20-335-1-304-59-529-190-725-138-208-363-336-509-289-94 30-161 94-212 204-88 189-68 434 56 690 26 55 64 124 84 154 159 235 317 583 361 796 48 225 54 278 55 460 1 186-32 406-77 515-3 8-7 17-8 20-20 81-116 267-193 373-99 138-297 308-432 369-258 119-519 138-770 57-374-120-673-456-848-949-55-154-117-410-137-560-3-25-8-61-10-80-22-156-33-358-39-720-2-118-6-222-9-230s-8-34-11-57c-28-228-154-458-300-550-86-55-212-67-276-26-167 105-168 438-3 837 115 279 156 388 222 582 39 115 77 236 86 269 32 114 105 410 111 444 3 18 8 43 10 55 3 11 7 30 8 41 2 11 13 74 24 140 12 66 24 147 27 180 4 33 9 71 11 85 19 117 25 519 11 688-8 88-10 105-22 162-3 14-7 43-11 65-18 130-88 342-162 492-73 148-208 326-312 413-23 19-47 40-54 45-29 27-188 124-249 153-88 41-229 88-309 102-35 6-97 22-140 35-120 38-232 54-371 53-70-1-129-3-130-5z" transform="matrix(.1 0 0 -.1 0 700)"/></svg>