<svg width="100" height="100" xmlns="http://www.w3.org/2000/svg"><g fill-rule="nonzero" fill="none"><path d="M50 0C22.386 0 0 22.386 0 50c0 8.82 2.37 17.06 6.292 24.3 5.013 9.255 24.36-26.204 34.68-18.476C51.29 63.55 16.464 88.714 26.14 93.87 33.283 97.676 41.343 100 50 100c27.614 0 50-22.386 50-50S77.614 0 50 0z" fill="#E5AA6E"/><path d="M53 89c-4.97 0-9-3.358-9-7.5 0-4.142 4.03-7.5 9-7.5s9 3.358 9 7.5c0 4.142-4.03 7.5-9 7.5z" fill="#FFF"/><path d="M85.698 57.839c2.574 4.071 1.213 9.682-3.038 12.533-4.252 2.85-9.785 1.86-12.358-2.21-2.574-4.072-1.213-9.683 3.038-12.534 4.252-2.85 9.785-1.86 12.358 2.21z" fill="#FFD469"/><path d="M86.981 29.873c.318 4.681-3.446 8.757-8.407 9.103-4.96.347-9.238-3.168-9.555-7.85-.318-4.68 3.446-8.756 8.407-9.102 4.96-.347 9.238 3.168 9.555 7.85z" fill="#0074A8"/><path d="M56.984 18.742c.321 4.676-4.337 8.805-10.403 9.224-6.067.418-11.245-3.033-11.565-7.708-.321-4.676 4.337-8.805 10.403-9.224 6.067-.418 11.245 3.033 11.565 7.708z" fill="#FF473E"/><path d="M28.981 37.873c.318 4.681-3.446 8.757-8.407 9.103-4.96.347-9.238-3.168-9.555-7.85-.318-4.68 3.446-8.756 8.407-9.102 4.96-.347 9.238 3.168 9.555 7.85z" fill="#009B51"/></g></svg>
